<?xml version="1.0" encoding="UTF-8" ?>
<svg xmlns="http://www.w3.org/2000/svg" width= "36" height="36" viewBox="0 0 36 36">
  <path fill="#CCD6DD" d="M34 29.096c-.417-.963-.896-2.008-2-2.008h-1c1.104 0 2-.899 2-2.008V8.008C33 6.899 32.104 6 31 6H5c-1.104 0-2 .899-2 2.008V25.08c0 1.109.896 2.008 2 2.008H4c-1.104 0-1.667 1.004-2 2.008l-2 4.895C0 35.101.896 36 2 36h32c1.104 0 2-.899 2-2.008l-2-4.896z"/>
  <path fill="#9AAAB4" d="M.008 34.075l.006.057.17.692C.5 35.516 1.192 36 2 36h32c1.076 0 1.947-.855 1.992-1.925H.008z"/>
  <path fill="white" d="M31 24.075c0 .555-.447 1.004-1 1.004H6c-.552 0-1-.449-1-1.004V9.013c0-.555.448-1.004 1-1.004h24c.553 0 1 .45 1 1.004v15.062z"/>
  <path fill="#AEBBC1" d="M32.906 31.042l-.76-2.175c-.239-.46-.635-.837-1.188-.837H5.11c-.552 0-.906.408-1.156 1.036l-.688 1.977c-.219.596.448 1.004 1 1.004h7.578s.937-.047 1.103-.608c.192-.648.415-1.624.463-1.796.074-.264.388-.531.856-.531h8.578c.5 0 .746.253.811.566.042.204.312 1.141.438 1.782.111.571 1.221.586 1.221.586h6.594c.551 0 1.217-.471.998-1.004z"/>
  <path fill="#9AAAB4" d="M22.375 33.113h-7.781c-.375 0-.538-.343-.484-.675.054-.331.359-1.793.383-1.963.023-.171.274-.375.524-.375h7.015c.297 0 .49.163.55.489.059.327.302 1.641.321 1.941.019.301-.169.583-.528.583z"/>
  <svg x="10" y="7" width="18" height="18" viewBox="0 0 36 36">
    <path fill="#66757F" d="M3.923 22.923c-.212.511-.798.751-1.308.539-.51-.213-.751-.798-.539-1.308L6.693 9.616c.212-.51.798-.751 1.307-.539.51.213.751.798.539 1.308L3.923 22.923z"/>
    <path fill="#66757F" d="M13.923 22.154c.212.51-.029 1.095-.539 1.308-.51.212-1.095-.028-1.308-.539L7.461 10.385c-.212-.51.029-1.095.539-1.308.51-.212 1.095.029 1.308.539l4.615 12.538zm10.001.769c-.213.511-.799.751-1.309.539-.51-.213-.75-.798-.538-1.308l4.616-12.539c.212-.509.797-.75 1.307-.538.51.213.752.798.539 1.308l-4.615 12.538z"/>
    <path fill="#66757F" d="M33.923 22.154c.212.51-.028 1.095-.538 1.308-.51.212-1.096-.028-1.309-.539l-4.615-12.538c-.213-.51.029-1.095.539-1.308.51-.212 1.095.029 1.307.539l4.616 12.538z"/>
    <path fill="#FFAC33" d="M14.857 22H1.143C.512 22 0 22.511 0 23.143c0 2.524 3.582 4.571 8 4.571s8-2.047 8-4.571c0-.632-.512-1.143-1.143-1.143zM24 34H12c-.552 0-1-.447-1-1 0-2.209 3.134-4 7-4s7 1.791 7 4c0 .553-.447 1-1 1zm10.857-12H21.143c-.632 0-1.143.511-1.143 1.143 0 2.524 3.581 4.571 8 4.571s8-2.047 8-4.571c0-.632-.511-1.143-1.143-1.143z"/>
    <path fill="#FFAC33" d="M19 3c0-.552-.447-1-1-1-.552 0-1 .448-1 1v27c0 .553.448 1 1 1 .553 0 1-.447 1-1V3z"/>
    <circle fill="#FFAC33" cx="18" cy="4" r="2"/>
    <circle fill="#FFAC33" cx="8" cy="10" r="2"/>
    <circle fill="#FFAC33" cx="28" cy="10" r="2"/>
    <path fill="#FFAC33" d="M28 10c0 1.104 0 0-10 0S8 11.104 8 10s3-4 10-4 10 2.896 10 4z"/>
  </svg>
</svg>
